<?xml version="1.0" encoding="utf-8"?>
<!-- Generator: Adobe Illustrator 14.0.0, SVG Export Plug-In . SVG Version: 6.00 Build 43363)  -->
<!DOCTYPE svg PUBLIC "-//W3C//DTD SVG 1.1//EN" "http://www.w3.org/Graphics/SVG/1.1/DTD/svg11.dtd">
<svg version="1.1" id="Layer_1" xmlns="http://www.w3.org/2000/svg" xmlns:xlink="http://www.w3.org/1999/xlink" x="0px" y="0px"
	 width="360px" height="360px" viewBox="0 0 360 360" enable-background="new 0 0 360 360" xml:space="preserve">
<path fill="none" stroke="#010101" stroke-width="7.6979" d="M299.199,189.064c-2.39-4.07-18.032-20.751-7.533-23.986
	c3.521-1.083,6.603,2.922,10.276,3.427c-1.375-5.955-3.696-10.008-4.796-15.759c-2.652-4.702-20.159-10.711-17.131-18.501
	c1.711-4.401,7.653-1.642,13.021-3.427c-3.32-4.221-6.765-8.312-9.595-13.021c-6.45-3.262-22.741-4.777-21.926-12.333
	c0.585-5.444,7.486-3.749,11.649-6.855c-5.039-2.726-9.333-6.201-13.704-9.593c-9.519-0.758-22.95,2.393-24.669-6.167
	c1.273-4.665,6.827-5.05,8.906-8.906c-5.727-1.338-7.995-4.151-15.759-4.112c-9.009,0.046-16.763,6.557-21.929,4.799
	c-8.06-2.75,0.309-11.038,2.744-14.392c-5.256,0-10.509,0-15.763,0c-5.785,0.83-14.307,13.184-21.238,11.649
	c-5.919-1.309-3.256-7.288-1.373-13.703c-8.144,1.154-6.179,1.982-15.075,4.111c-2.584,3.227-4.854,6.988-7.539,10.279
	c-2.551,3.133-5.368,7.892-11.648,6.852c-3.041-1.755-1.853-7.74-2.056-12.333c-3.803,1.229-9.253,6.729-13.705,9.592
	c-3.441,6.445-4.273,22.294-12.333,21.245c-5.354-0.701-3.535-7.056-6.854-10.966c-0.793,4.841-6.618,5.407-8.907,13.706
	c-2.529,9.163,2.594,23.632-6.169,23.983c-5.031,0.201-5.424-6.079-8.906-8.909c-0.856,6.075-4.743,10.18-4.796,15.761
	c-0.071,7.093,6.098,13.834,4.796,22.612c-2.425,1.794-2.335,2.626-4.796,2.74c-3.703,0.178-7.203-4.529-9.593-4.796
	c0.833,5.863-1.152,9.345,0,14.392c1.491,6.528,12.502,14.268,11.649,20.555c-0.934,6.867-8.635,4.382-14.392,1.37
	c1.331,5.521,3.751,9.951,4.799,15.759c2.934,4.46,19.256,10.432,17.817,17.815c-0.909,4.663-6.246,4.217-13.021,3.428
	c3.319,3.764,4.435,10.004,9.592,13.704c6.666,4.78,16.588,3.787,19.874,8.219c5.696,7.696-4.811,8.647-9.597,10.968
	c5.132,1.841,8.452,8.228,14.393,9.588c8.991,2.071,23.562-3.076,23.295,6.169c-0.155,5.397-6.525,4.436-8.906,8.911
	c5.788,1.062,10.838,2.864,15.761,4.798c7.299-1.348,24.256-11.013,25.354-0.686c0.543,5.112-4.238,6.92-4.796,10.277
	c3.08-0.949,8.984-0.508,15.761-0.685c7.282-3.685,10.761-11.168,21.929-10.964c4.105,3.554,0.484,10.117-1.371,13.706
	c6.109-2.506,11.383-1.937,15.759-4.798c7.119-4.646,7.884-17.233,19.188-17.127c0.151,0.535,0.571,0.796,1.367,0.684
	c2.865,2.852-0.064,9.385,1.374,12.333c4.218-3.317,8.31-6.765,13.019-9.594c3.499-6.147,4.727-23.548,13.019-21.926
	c4.881,0.952,3.377,7.373,6.166,11.65c2.817-4.949,6.303-9.233,9.593-13.703c0.764-10.033-1.896-24.733,6.167-24.672
	c5.236,0.04,4.598,6.588,8.909,8.91c1.294-5.329,2.956-10.295,4.796-15.071c-0.863-7.427-10.93-24.913-0.685-26.043
	c4.622-0.509,5.654,5.144,10.277,6.167C298.495,201.643,299.506,194.693,299.199,189.064z"/>
</svg>
